<mxfile host="app.diagrams.net" modified="2023-07-11T14:56:13.421Z" agent="Mozilla/5.0 (X11; Ubuntu; Linux x86_64; rv:109.0) Gecko/20100101 Firefox/114.0" etag="D1mH9jSo00y7p7iVJjB9" version="21.5.2">
  <diagram name="Page-1" id="qb_ZtY5n5JlM0fx14WMn">
    <mxGraphModel dx="1360" dy="795" grid="1" gridSize="10" guides="1" tooltips="1" connect="1" arrows="1" fold="1" page="1" pageScale="1" pageWidth="850" pageHeight="1100" math="0" shadow="0">
      <root>
        <mxCell id="0" />
        <mxCell id="1" parent="0" />
        <mxCell id="Rub7pcg7X3PBs07Vx_1k-1" value="&lt;div style=&quot;font-size: 14px;&quot;&gt;Spring Cloud Config Server&lt;br style=&quot;font-size: 14px;&quot;&gt;&lt;/div&gt;" style="rounded=0;whiteSpace=wrap;html=1;fontSize=14;" parent="1" vertex="1">
          <mxGeometry x="330" y="260" width="155" height="70" as="geometry" />
        </mxCell>
        <mxCell id="Rub7pcg7X3PBs07Vx_1k-3" value="Spring_Service_1" style="rounded=0;whiteSpace=wrap;html=1;fontSize=14;" parent="1" vertex="1">
          <mxGeometry x="270" y="380" width="120" height="60" as="geometry" />
        </mxCell>
        <mxCell id="Rub7pcg7X3PBs07Vx_1k-4" value="Spring_Service_2" style="rounded=0;whiteSpace=wrap;html=1;fontSize=14;" parent="1" vertex="1">
          <mxGeometry x="400" y="380" width="120" height="60" as="geometry" />
        </mxCell>
        <mxCell id="Rub7pcg7X3PBs07Vx_1k-8" value="" style="endArrow=classic;html=1;rounded=0;entryX=0.5;entryY=0;entryDx=0;entryDy=0;fontSize=14;" parent="1" target="Rub7pcg7X3PBs07Vx_1k-4" edge="1">
          <mxGeometry width="50" height="50" relative="1" as="geometry">
            <mxPoint x="420" y="330" as="sourcePoint" />
            <mxPoint x="450" y="390" as="targetPoint" />
          </mxGeometry>
        </mxCell>
        <mxCell id="Rub7pcg7X3PBs07Vx_1k-9" value="Git - Repository" style="shape=cylinder3;whiteSpace=wrap;html=1;boundedLbl=1;backgroundOutline=1;size=15;fontSize=14;verticalAlign=top;" parent="1" vertex="1">
          <mxGeometry x="550" y="220" width="180" height="220" as="geometry" />
        </mxCell>
        <mxCell id="Rub7pcg7X3PBs07Vx_1k-10" value="" style="endArrow=none;html=1;rounded=0;entryX=0;entryY=0.341;entryDx=0;entryDy=0;entryPerimeter=0;exitX=1;exitY=0.5;exitDx=0;exitDy=0;fontSize=14;" parent="1" source="Rub7pcg7X3PBs07Vx_1k-1" target="Rub7pcg7X3PBs07Vx_1k-9" edge="1">
          <mxGeometry width="50" height="50" relative="1" as="geometry">
            <mxPoint x="400" y="440" as="sourcePoint" />
            <mxPoint x="450" y="390" as="targetPoint" />
          </mxGeometry>
        </mxCell>
        <mxCell id="Rub7pcg7X3PBs07Vx_1k-11" value="" style="endArrow=classic;html=1;rounded=0;entryX=0.5;entryY=0;entryDx=0;entryDy=0;exitX=0.355;exitY=0.986;exitDx=0;exitDy=0;fontSize=14;exitPerimeter=0;" parent="1" source="Rub7pcg7X3PBs07Vx_1k-1" target="Rub7pcg7X3PBs07Vx_1k-3" edge="1">
          <mxGeometry width="50" height="50" relative="1" as="geometry">
            <mxPoint x="392.5" y="320" as="sourcePoint" />
            <mxPoint x="450" y="390" as="targetPoint" />
          </mxGeometry>
        </mxCell>
        <mxCell id="zuisJm0eJE3-2qIRJj0z-2" value="Spring_Service_1.properties" style="rounded=0;whiteSpace=wrap;html=1;" parent="1" vertex="1">
          <mxGeometry x="561.25" y="280" width="157.5" height="40" as="geometry" />
        </mxCell>
        <mxCell id="zuisJm0eJE3-2qIRJj0z-3" value="Spring_Service_2.properties" style="rounded=0;whiteSpace=wrap;html=1;" parent="1" vertex="1">
          <mxGeometry x="561.25" y="330" width="157.5" height="40" as="geometry" />
        </mxCell>
        <mxCell id="zuisJm0eJE3-2qIRJj0z-4" value="some_shared.properties" style="rounded=0;whiteSpace=wrap;html=1;" parent="1" vertex="1">
          <mxGeometry x="561.25" y="380" width="157.5" height="40" as="geometry" />
        </mxCell>
      </root>
    </mxGraphModel>
  </diagram>
</mxfile>
